<svg xmlns="http://www.w3.org/2000/svg" width="70" height="68" viewBox="0 0 70 68"><defs><style>.a{fill:#fff;}.b{fill:#9a4993;}.c{fill:#6a1577;}.d{fill:#813084;}</style></defs><g transform="translate(-29 -10)"><rect class="a" width="70" height="68" transform="translate(29 10)"/><g transform="translate(31.116 11.114)"><path class="b" d="M54.224,22.983a4.162,4.162,0,0,0-.526-2.13,4.019,4.019,0,0,0-1.538-1.5q-8.52-4.911-17.053-9.822a4.2,4.2,0,0,0-4.536.039c-2.262,1.328-13.6,7.823-16.961,9.782A3.935,3.935,0,0,0,11.544,23V42.771a4.311,4.311,0,0,0,.5,2.091,4.123,4.123,0,0,0,1.565,1.551c3.379,1.959,14.7,8.441,16.961,9.782a4.171,4.171,0,0,0,4.536.039q8.52-4.931,17.053-9.822a3.946,3.946,0,0,0,1.565-1.551,4.311,4.311,0,0,0,.5-2.091V22.983"/><path class="c" d="M32.936,32.8,12.018,44.849A4.123,4.123,0,0,0,13.582,46.4c3.379,1.959,14.7,8.441,16.961,9.782a4.171,4.171,0,0,0,4.536.039Q43.6,51.291,52.133,46.4A3.946,3.946,0,0,0,53.7,44.849L32.936,32.8"/><path class="c" d="M26.744,36.368a7.053,7.053,0,0,0,12.28-.039L32.936,32.8l-6.193,3.563"/><path class="d" d="M54.224,22.983a4.162,4.162,0,0,0-.526-2.13L32.936,32.8,53.724,44.849a4.311,4.311,0,0,0,.5-2.091V22.983"/><path class="a" d="M39.024,36.329a7.067,7.067,0,1,1-.053-6.995l6.167-3.55a14.161,14.161,0,1,0,.053,14.108l-6.167-3.563"/><rect class="a" width="1.407" height="6.798" transform="translate(45.414 29.518)"/><rect class="a" width="1.407" height="6.798" transform="translate(48.53 29.518)"/><rect class="a" width="1.407" height="6.798" transform="translate(51.069 30.661) rotate(90)"/><rect class="a" width="1.407" height="6.798" transform="translate(51.078 33.772) rotate(90)"/></g></g></svg>