<svg xmlns="http://www.w3.org/2000/svg" xmlns:xlink="http://www.w3.org/1999/xlink" width="70" height="68" viewBox="0 0 70 68"><defs><style>.a,.h{fill:#fff;}.b{fill:url(#a);}.c{fill:#fae7e3;}.c,.d,.f,.g,.h,.i{fill-rule:evenodd;}.d{fill:#eee;}.e{fill:#ee4b2e;}.f{fill:#f04e31;}.g{fill:#dd0c13;}.h{stroke:#ee4b2e;stroke-miterlimit:10;stroke-width:4px;}.i{fill:#ff6e4f;}.j{fill:rgba(255,255,255,0.2);}</style><linearGradient id="a" x1="0.5" y1="-0.087" x2="0.5" y2="0.716" gradientUnits="objectBoundingBox"><stop offset="0.021" stop-color="#ff0c15"/><stop offset="1" stop-color="#9a0c0f"/></linearGradient></defs><g transform="translate(-29 -9)"><rect class="a" width="70" height="68" transform="translate(29 9)"/><g transform="translate(-181.022 -112.584)"><circle class="b" cx="24" cy="24" r="24" transform="translate(221.022 131.584)"/><g transform="translate(228.702 138.235)"><g transform="translate(0 0)"><path class="c" d="M400.274,189.955l8.96-7.5-6.72-2.377-6.491,8.868" transform="translate(-379.703 -180.081)"/><path class="c" d="M366.424,188.9l5.074-8.823h-6.491l-2.651,9.28" transform="translate(-350.653 -180.081)"/><path class="c" d="M332.561,198.414l.96-8-5.166,2.149.732,8.229" transform="translate(-321.316 -188.997)"/><path class="c" d="M297.567,223.35l-1.646-7.269-3.566,3.566,3.337,6.583" transform="translate(-290.253 -211.144)"/><path class="c" d="M283.731,265.877l-3.246-4.589-1.463,3.583,4.114,3.515" transform="translate(-278.748 -250.151)"/><path class="c" d="M281.411,299.393l-4.114-2.646-.274,3.749,4.663,1.6" transform="translate(-277.022 -280.747)"/><path class="c" d="M283.457,333.463l-4.434-1.382,1.006,3.017h3.977" transform="translate(-278.748 -311.235)"/><path class="c" d="M295.784,357.747l-3.429.5,1.577,2.331,2.811-1.28" transform="translate(-290.253 -333.381)"/></g><g transform="translate(4.389 8.649)"><path class="d" d="M329.576,248.583a11.331,11.331,0,0,0-7.766-3.434,10.789,10.789,0,0,0-7.191,18.831l8.471.221-3.566-7.131Z" transform="translate(-310.748 -244.875)"/><path class="e" d="M321.815,262.762l-9.028-.236-.075-.067a11.063,11.063,0,0,1,7.373-19.31,11.635,11.635,0,0,1,7.96,3.515l.211.211-10.115,8.541ZM313,261.983l7.913.207-3.458-6.915,9.985-8.432a11.023,11.023,0,0,0-7.358-3.145A10.514,10.514,0,0,0,313,261.983Z" transform="translate(-309.022 -243.149)"/></g><path class="f" d="M324.082,271.193c-7.154-9.966,3.616-14.008,4.249-14.491.774-.59-13.011,3.06-5.53,15.223Z" transform="translate(-314.596 -246.142)"/><g transform="translate(11.762 11.05)"><path class="d" d="M377.365,264.081,365.022,272.6l.366,1.725,13.257-2.651Z" transform="translate(-364.716 -263.611)"/><path class="e" d="M363.25,271.683l-.46-2.169,12.848-8.863,1.4,8.276Zm.152-1.925.272,1.281,12.73-2.546-1.164-6.9Z" transform="translate(-362.79 -260.651)"/></g><path class="g" d="M333.709,370.739c-6.737-1.145-7.343.733-7.343.733l-2.011,4.617s1.92-1.554,9.417,0l1.3-2.38Z" transform="translate(-317.864 -344.273)"/><path class="h" d="M494.084,411.481" transform="translate(-464.316 -379.746)"/><path class="i" d="M342.8,374.234c-.034-.343-1.888-.547-2.875-.211-1.255.427-2.089,1.958-1.791,2.079a3.385,3.385,0,0,1,1.928-1.691C341.647,374.043,342.838,374.577,342.8,374.234Z" transform="translate(-329.703 -347.277)"/><g transform="translate(13.36 21.519)"><path class="d" d="M379.092,339.157a19.02,19.02,0,0,0,2.651,2.549,11.829,11.829,0,0,1,4.663,7.04c-.183,1.829-3.383,3.017-3.383,3.017l-5.669-12.332Z" transform="translate(-376.955 -338.86)"/><path class="e" d="M380.362,350.238l-5.926-12.893,2.263-.357.1.139a18.637,18.637,0,0,0,2.591,2.487,11.992,11.992,0,0,1,4.769,7.212l.007.037,0,.038c-.2,1.976-3.423,3.2-3.56,3.247Zm-5.125-12.464,5.408,11.765c.71-.3,2.794-1.307,2.966-2.653a11.646,11.646,0,0,0-4.54-6.825l-.017-.013a20.466,20.466,0,0,1-2.6-2.467Z" transform="translate(-374.436 -336.988)"/></g></g><circle class="j" cx="24" cy="24" r="24" transform="translate(221.022 131.584)"/></g></g></svg>