<svg xmlns="http://www.w3.org/2000/svg" width="205.603" height="120.22" viewBox="0 0 205.603 120.22"><defs><style>.a{fill:#fff;}.b{fill:#f37021;}</style></defs><g transform="translate(-25.7 -28.2)"><path class="a" d="M25.7,266.927H38.45a5.989,5.989,0,0,0,5.881-4.935l4.648-25.376a6.064,6.064,0,0,0-4.812-6.992c-.411,0-.7-.123-1.11-.123H36.8a5.989,5.989,0,0,0-5.881,4.935l-2.756,14.806a6.064,6.064,0,0,0,4.812,6.992c.411,0,.7.123,1.11.123h5.881l-.987,5.511a1.182,1.182,0,0,1-1.234.946H26.523Zm18.1-31.793L40.63,252.285H34.337a1.212,1.212,0,0,1-1.234-1.234v-.123l3-16.164a1.182,1.182,0,0,1,1.234-.946h5.223c.7-.082,1.234.494,1.234,1.316Z" transform="translate(0 -118.508)"/><path class="a" d="M238.088,231.78a5.856,5.856,0,0,0-4.524-2.18h-6.293a5.989,5.989,0,0,0-5.881,4.935l-3.99,21.8h5.182l3.99-21.51a1.182,1.182,0,0,1,1.234-.946h5.223a1.212,1.212,0,0,1,1.234,1.234v.123l-3.825,21.1h5.347l3.578-19.618A5.511,5.511,0,0,0,238.088,231.78Z" transform="translate(-112.856 -118.567)"/><path class="a" d="M139.571,229.9a5.989,5.989,0,0,0-5.881,4.935l-3.99,21.8h5.347l3.989-21.675a1.182,1.182,0,0,1,1.234-.946h6.992l.823-4.113Z" transform="translate(-61.226 -118.743)"/><path class="a" d="M101.21,231.78a5.856,5.856,0,0,0-4.524-2.18H90.516a5.989,5.989,0,0,0-5.881,4.935l-2.756,14.806a6.064,6.064,0,0,0,4.812,6.992c.411,0,.7.123,1.11.123H98.331l.7-3.989H88.213a1.212,1.212,0,0,1-1.234-1.234v-.123l.535-3.167h8.1a5.989,5.989,0,0,0,5.881-4.935l1.11-6.293A6.116,6.116,0,0,0,101.21,231.78Zm-3.7,3.414-1.357,7.527a1.182,1.182,0,0,1-1.234.946H88.337l1.645-8.925a1.182,1.182,0,0,1,1.234-.946h5.223c.658,0,1.069.576,1.069,1.4Z" transform="translate(-33.024 -118.567)"/><path class="a" d="M189.033,231.78a6.107,6.107,0,0,0-4.648-2.18h-6.169a5.989,5.989,0,0,0-5.881,4.935l-2.756,14.806a6.064,6.064,0,0,0,4.812,6.992c.411,0,.7.123,1.11.123h10.57l.7-3.989h-10.9a1.212,1.212,0,0,1-1.234-1.234v-.123l.535-3.167h8.1a5.989,5.989,0,0,0,5.881-4.935l1.11-6.293A5.869,5.869,0,0,0,189.033,231.78Zm-3.825,3.414-1.357,7.527a1.182,1.182,0,0,1-1.234.946h-6.581l1.645-8.925a1.182,1.182,0,0,1,1.234-.946H184.1a1.135,1.135,0,0,1,1.11,1.4Z" transform="translate(-84.654 -118.567)"/><path class="a" d="M354.387,232.08a5.856,5.856,0,0,0-4.524-2.18h-8.637l-.7,3.99h9.048a1.212,1.212,0,0,1,1.234,1.234v.123l-.535,3.167h-8.1a5.989,5.989,0,0,0-5.881,4.935l-1.11,6.293a6.064,6.064,0,0,0,4.812,6.992c.411,0,.7.123,1.111.123h6.293a5.989,5.989,0,0,0,5.881-4.935l2.756-14.806A7.992,7.992,0,0,0,354.387,232.08Zm-7.938,20.277h-5.223a1.212,1.212,0,0,1-1.234-1.234V251l1.357-7.527a1.182,1.182,0,0,1,1.234-.946h6.7l-1.645,8.925a.937.937,0,0,1-1.193.9Z" transform="translate(-182.144 -118.743)"/><path class="a" d="M279.223,235.023a1.33,1.33,0,0,1,1.357-1.11h8.1l.823-4.113h-9.583a6.187,6.187,0,0,0-6.046,5.059l-2.591,14.518a6.254,6.254,0,0,0,4.935,7.115c.411,0,.7.123,1.11.123h7.4l.7-4.113H277.7a1.274,1.274,0,0,1-1.357-1.357v-.288Z" transform="translate(-144.531 -118.684)"/><path class="a" d="M316.1,235.5l-4.4,24.431h5.223l4.524-24.431Z" transform="translate(-168.371 -122.04)"/><path class="a" d="M324.223,219.9l-.823,4.113h5.182l.987-4.113Z" transform="translate(-175.259 -112.856)"/><path class="a" d="M404.088,231.78a5.856,5.856,0,0,0-4.524-2.18h-6.293a5.989,5.989,0,0,0-5.881,4.935l-3.99,21.8h5.347l3.99-21.51a1.182,1.182,0,0,1,1.234-.946h5.347a1.212,1.212,0,0,1,1.234,1.234v.123l-3.825,21.1h5.347l3.578-19.618A6.682,6.682,0,0,0,404.088,231.78Z" transform="translate(-210.582 -118.567)"/><path class="a" d="M456.374,231.78a5.856,5.856,0,0,0-4.524-2.18h-6.334a5.989,5.989,0,0,0-5.881,4.935l-2.756,14.806a6.064,6.064,0,0,0,4.812,6.992c.411,0,.7.123,1.111.123h10.529l.7-3.989H443.213a1.212,1.212,0,0,1-1.234-1.234v-.123l.535-3.167h8.1a5.989,5.989,0,0,0,5.881-4.935l1.11-6.293A6.009,6.009,0,0,0,456.374,231.78Zm-3.866,3.414-1.357,7.527a1.182,1.182,0,0,1-1.234.946h-6.7l1.645-8.925a1.182,1.182,0,0,1,1.234-.946h5.182a1.282,1.282,0,0,1,1.234,1.4Z" transform="translate(-242.016 -118.567)"/><path class="a" d="M495.876,229.136a1.33,1.33,0,0,1,1.357-1.11h5.47l.823-4.113H497.11l.7-4.113h-5.347l-3.578,19.742h0l-.7,3.825a6.254,6.254,0,0,0,4.935,7.115c.411,0,.7.123,1.111.123h6.293l.823-4.113h-6.7a1.274,1.274,0,0,1-1.357-1.357v-.288Z" transform="translate(-272.223 -112.797)"/><path class="b" d="M236.848,57.114l35.659-9.583L276.085,28.2,238.247,44.528a40.16,40.16,0,0,1-16.575,3.414h-4.648L212.5,58.512h13.285A42.073,42.073,0,0,0,236.848,57.114Z" transform="translate(-109.971)"/><path class="b" d="M198.7,110.474h26.035l34.672,1.769L262.82,93.2,227.2,99.493a42.4,42.4,0,0,1-7.28.7H203.06Z" transform="translate(-101.847 -38.266)"/><path class="b" d="M211.545,143.5H188.924L184.4,154.07h23.855a64.874,64.874,0,0,1,18.631,2.756L247.163,163l2.468-13.7-27.844-4.935C218.537,143.911,214.959,143.665,211.545,143.5Z" transform="translate(-93.428 -67.878)"/></g></svg>