<svg xmlns="http://www.w3.org/2000/svg" width="40.732" height="36" viewBox="0 0 40.732 36"><defs><style>.a{fill:#fff;}</style></defs><g transform="translate(0 -6.202)"><g transform="translate(0 6.202)"><path class="a" d="M17.245,29.909c-2.038,0-3.7,1.989-3.7,4.435s1.658,4.435,3.7,4.435,3.7-1.989,3.7-4.435S19.282,29.909,17.245,29.909Zm0,7.391c-1.222,0-2.217-1.326-2.217-2.956s.995-2.956,2.217-2.956,2.217,1.326,2.217,2.956S18.468,37.3,17.245,37.3Z" transform="translate(-3.535 -10.169)"/><path class="a" d="M36.245,29.909c-2.038,0-3.7,1.989-3.7,4.435s1.658,4.435,3.7,4.435,3.7-1.989,3.7-4.435S38.282,29.909,36.245,29.909Zm0,7.391c-1.222,0-2.217-1.326-2.217-2.956s.995-2.956,2.217-2.956,2.217,1.326,2.217,2.956S37.468,37.3,36.245,37.3Z" transform="translate(-8.492 -10.169)"/><path class="a" d="M30.729,24.909h-.11c-.684.012-1.37.04-2.055.067-.624.025-1.248.05-1.871.063l-1.083.023c-1.88.039-3.827.079-5.729.072-.868,0-1.736-.036-2.6-.069-1.181-.044-2.4-.092-3.611-.061a6.233,6.233,0,0,0-4.2,1.6h0a7.721,7.721,0,0,0-2.327,6.86c.4,4.245,2.114,6.416,5.914,7.491a31.622,31.622,0,0,0,9.107.947l.9,0c.3,0,.608.005.911.005.375,0,.749,0,1.124-.016a24,24,0,0,0,7.119-1.215,6.983,6.983,0,0,0,4.633-4.564,10.784,10.784,0,0,0,.5-4.924C36.991,28.565,34.7,24.909,30.729,24.909Zm4.716,10.743a5.5,5.5,0,0,1-3.71,3.628,22.576,22.576,0,0,1-6.686,1.135c-.659.021-1.317.015-1.976.01l-.923-.005a30.279,30.279,0,0,1-8.694-.891c-3.191-.9-4.5-2.585-4.846-6.206a6.339,6.339,0,0,1,1.854-5.634A4.805,4.805,0,0,1,13.7,26.482c1.165-.027,2.362.017,3.52.061.884.033,1.769.067,2.653.07,1.928.009,3.878-.033,5.767-.072l1.081-.022c.633-.013,1.267-.039,1.9-.064.673-.027,1.347-.055,2.02-.066h.08c3.053,0,4.883,2.973,5.162,5A9.321,9.321,0,0,1,35.445,35.652Z" transform="translate(-1.848 -8.865)"/><path class="a" d="M38.335,14.553a2.084,2.084,0,0,1-.578-1.608,17.671,17.671,0,0,0-.236-4.058L37.509,8.8a19.3,19.3,0,0,0-1.38-5.04l-.24-.557L34.8,3.434a14.863,14.863,0,0,0-4.514,1.474c-.949.548-1.894,1.133-2.806,1.7-.611.378-1.222.757-1.837,1.126a.343.343,0,0,1-.118.036h0a30.576,30.576,0,0,0-10.207-.017.578.578,0,0,1-.293-.082c-.381-.228-.753-.474-1.124-.718-.431-.285-.863-.568-1.306-.828A18.955,18.955,0,0,0,5.382,3.331l-.54-.069-.288.623C4.5,4,4.455,4.1,4.418,4.2A23.652,23.652,0,0,0,3,10.913a12,12,0,0,0,.01,2.5c.04.279.007.335-.1.471A12.475,12.475,0,0,0,.727,17.848a17.932,17.932,0,0,0-.45,8.37,15.908,15.908,0,0,0,2.2,6.551c2.36,3.7,6,5.787,10.829,6.2,2.412.205,4.859.237,7.258.237l1.54,0q1.01,0,2.019,0a20.8,20.8,0,0,0,7.794-1.278A12.737,12.737,0,0,0,39.8,29.28a23.127,23.127,0,0,0,.92-7.348A13,13,0,0,0,38.335,14.553Zm.048,14.306a11.189,11.189,0,0,1-7,7.684,19.068,19.068,0,0,1-7.252,1.176q-1.012,0-2.026,0c-2.854.008-5.8.016-8.669-.228-4.4-.375-7.58-2.18-9.708-5.519A14.517,14.517,0,0,1,1.74,26.005a16.305,16.305,0,0,1,.392-7.7,11.046,11.046,0,0,1,1.925-3.5,1.891,1.891,0,0,0,.412-1.6,11.294,11.294,0,0,1,.006-2.262A22.02,22.02,0,0,1,5.741,4.879a18.53,18.53,0,0,1,6.1,2.517c.421.247.831.517,1.239.786.39.257.78.514,1.18.753a1.979,1.979,0,0,0,1.291.272,29.1,29.1,0,0,1,9.716.016A1.736,1.736,0,0,0,26.4,9c.622-.373,1.238-.755,1.855-1.137.918-.568,1.835-1.136,2.769-1.675A13.241,13.241,0,0,1,35,4.9,18.055,18.055,0,0,1,36.044,9l.012.087a16.6,16.6,0,0,1,.228,3.718,3.53,3.53,0,0,0,.854,2.619,11.412,11.412,0,0,1,2.1,6.557A21.611,21.611,0,0,1,38.383,28.859Z" transform="translate(0 -3.202)"/></g></g></svg>