<svg xmlns="http://www.w3.org/2000/svg" width="70" height="68" viewBox="0 0 70 68"><defs><style>.a{fill:#fff;}.b,.c{fill:#00acd7;}.b{fill-rule:evenodd;}</style></defs><g transform="translate(-29 -9)"><rect class="a" width="70" height="68" transform="translate(29 9)"/><g transform="translate(29.629 30.033)"><path class="b" d="M3.825,5.993c-.132,0-.166-.066-.1-.166l.7-.894a.474.474,0,0,1,.364-.166H16.6c.132,0,.166.1.1.2l-.563.861a.5.5,0,0,1-.331.2Z" transform="translate(1.307 1.7)"/><path class="b" d="M.3,8.143c-.132,0-.166-.066-.1-.166l.7-.894a.474.474,0,0,1,.364-.166h15.1a.152.152,0,0,1,.166.2l-.265.795a.29.29,0,0,1-.3.2Z" transform="translate(-0.164 2.596)"/><path class="b" d="M5.952,10.293c-.132,0-.166-.1-.1-.2l.464-.828a.439.439,0,0,1,.331-.2h6.622c.132,0,.2.1.2.232l-.066.795a.249.249,0,0,1-.232.232Z" transform="translate(2.193 3.492)"/><g transform="translate(18.049 0)"><path class="b" d="M24.512,7.3c-2.086.53-3.509.927-5.562,1.457-.5.132-.53.166-.96-.331a4.432,4.432,0,0,0-1.556-1.258,5.757,5.757,0,0,0-5.993.5,7.041,7.041,0,0,0-3.377,6.291,5.19,5.19,0,0,0,4.47,5.2,6.111,6.111,0,0,0,5.628-2.185c.3-.364.563-.761.894-1.225h-6.39c-.7,0-.861-.43-.629-.993.43-1.026,1.225-2.748,1.689-3.609a.894.894,0,0,1,.828-.53H25.6c-.066.894-.066,1.788-.2,2.682a14.12,14.12,0,0,1-2.715,6.489,13.792,13.792,0,0,1-9.436,5.628,11.727,11.727,0,0,1-8.906-2.185,10.4,10.4,0,0,1-4.2-7.35,13,13,0,0,1,2.814-9.7A14.692,14.692,0,0,1,12.229.445,11.409,11.409,0,0,1,21,2.068a10.378,10.378,0,0,1,3.841,4.668c.2.3.066.464-.331.563Z" transform="translate(-0.05 -0.202)"/><path class="c" d="M28.53,25.517A12.42,12.42,0,0,1,20.451,22.6a10.384,10.384,0,0,1-3.576-6.39,12.639,12.639,0,0,1,2.682-10A13.879,13.879,0,0,1,28.828.686a12.281,12.281,0,0,1,9.436,1.689,10.306,10.306,0,0,1,4.668,7.383,12.78,12.78,0,0,1-3.807,11.224,15.171,15.171,0,0,1-7.946,4.238C30.285,25.385,29.391,25.418,28.53,25.517Zm7.88-13.376a9.527,9.527,0,0,0-.1-1.093,5.454,5.454,0,0,0-6.754-4.4,7.233,7.233,0,0,0-5.794,5.761,5.453,5.453,0,0,0,3.046,6.257,6.07,6.07,0,0,0,5.4-.2,7.246,7.246,0,0,0,4.2-6.324Z" transform="translate(6.891 -0.112)"/></g></g></g></svg>