<svg xmlns="http://www.w3.org/2000/svg" width="70" height="68" viewBox="0 0 70 68"><defs><style>.a{fill:#fff;}.b{fill:#f44336;}.c{fill:#1565c0;}</style></defs><g transform="translate(-29 -10)"><rect class="a" width="70" height="68" transform="translate(29 10)"/><g transform="translate(36 8.001)"><path class="b" d="M25.593,31.864a41.1,41.1,0,0,1-3.633-7.273C19.7,18.934,35.713,13.822,29.219,4c2.815,6.785-10.1,10.98-11.3,16.631C16.819,25.827,25.586,31.864,25.593,31.864Z" transform="translate(2.941)"/><path class="b" d="M23.882,19.344c-.256,3.355,2.972,5.143,3.065,7.593.075,1.995-1.929,3.657-1.929,3.657s3.637-.715,4.772-3.757c1.26-3.379-2.445-5.692-2.064-8.4.356-2.584,8.041-7.391,8.041-7.391S24.459,11.8,23.882,19.344Z" transform="translate(4.956 2.35)"/><g transform="translate(9 30.819)"><path class="c" d="M38.884,25.369c2.339-.525,4.311.964,4.311,2.68,0,3.868-5.361,7.524-5.361,7.524s8.3-.989,8.3-7.34C46.134,24.033,42.058,22.983,38.884,25.369Zm-3.94,3.12s2.588-1.844,3.277-2.536c-6.351,1.348-20.851,1.529-20.851.359,0-1.079,4.676-2.184,4.676-2.184s-10.364-.149-10.364,2.908C11.683,30.222,25.25,30.45,34.944,28.489Z" transform="translate(-8.106 -24.114)"/><path class="c" d="M32.378,29.9c-6.012,2-17.085,1.36-13.805-1.324-1.6,0-3.965,1.284-3.965,2.519,0,2.476,11.976,4.388,20.84.763Z" transform="translate(-7.131 -22.626)"/><path class="c" d="M19.584,32.739c-2.181,0-3.593,1.405-3.593,2.429,0,3.188,13.013,3.509,18.169.273l-3.277-2.176C27.031,34.959,17.355,35.192,19.584,32.739Z" transform="translate(-6.67 -21.239)"/><path class="c" d="M45.375,37.247c0-1.248-1.407-1.836-1.911-2.117,2.971,7.164-29.756,6.608-29.756,2.379,0-.961,2.409-1.9,4.636-1.457l-1.893-1.119C12.013,34.236,9,36.187,9,37.76,9,45.1,45.375,44.744,45.375,37.247Z" transform="translate(-9 -20.556)"/><path class="c" d="M47.41,38.6c-5.528,5.46-19.545,7.449-33.641,4.076C27.865,48.684,47.344,45.3,47.41,38.6Z" transform="translate(-7.41 -19.284)"/></g></g></g></svg>