<svg xmlns="http://www.w3.org/2000/svg" xmlns:xlink="http://www.w3.org/1999/xlink" width="70" height="68" viewBox="0 0 70 68"><defs><style>.a{fill:#fff;}.b,.d{fill:#5fa04d;}.c{fill:#2e3339;}.c,.d{fill-rule:evenodd;}.e{fill:url(#a);}.f{clip-path:url(#b);}.g{fill:none;}.h{fill:url(#c);}.i{fill:url(#e);}.j{fill:url(#f);}.k{fill:url(#g);}.l{fill:url(#h);}.m{fill:url(#i);}</style><linearGradient id="a" x1="0.682" y1="0.175" x2="0.278" y2="0.897" gradientUnits="objectBoundingBox"><stop offset="0" stop-color="#42813b"/><stop offset="0.265" stop-color="#45853d"/><stop offset="0.512" stop-color="#509043"/><stop offset="0.752" stop-color="#62a34e"/><stop offset="0.986" stop-color="#7abd5d"/><stop offset="1" stop-color="#7cbf5e"/></linearGradient><clipPath id="b"><path d="M20.241,6.824a.792.792,0,0,0-.784,0L12.984,10.56a.768.768,0,0,0-.384.676v7.487a.8.8,0,0,0,.384.676l6.473,3.736a.792.792,0,0,0,.784,0L26.713,19.4a.768.768,0,0,0,.384-.676V11.236a.8.8,0,0,0-.384-.676Z" transform="translate(-12.6 -6.72)"/></clipPath><linearGradient id="c" x1="0.433" y1="0.552" x2="1.592" y2="-0.183" gradientUnits="objectBoundingBox"><stop offset="0.065" stop-color="#42813b"/><stop offset="0.241" stop-color="#569747"/><stop offset="0.479" stop-color="#6bad54"/><stop offset="0.706" stop-color="#78ba5b"/><stop offset="0.908" stop-color="#7cbf5e"/></linearGradient><linearGradient id="e" x1="-55.179" y1="0.391" x2="66.591" y2="0.391" gradientUnits="objectBoundingBox"><stop offset="0.092" stop-color="#6cc04a"/><stop offset="0.286" stop-color="#66b848"/><stop offset="0.597" stop-color="#54a044"/><stop offset="0.862" stop-color="#41873f"/></linearGradient><linearGradient id="f" x1="-0.044" y1="0.5" x2="1.016" y2="0.5" gradientUnits="objectBoundingBox"><stop offset="0.092" stop-color="#7cbf5e"/><stop offset="0.272" stop-color="#77ba5b"/><stop offset="0.488" stop-color="#6aab53"/><stop offset="0.719" stop-color="#539445"/><stop offset="0.862" stop-color="#42813b"/></linearGradient><linearGradient id="g" x1="-323.807" y1="0.493" x2="0.91" y2="0.493" xlink:href="#e"/><linearGradient id="h" x1="-1.035" y1="0.502" x2="1.008" y2="0.502" xlink:href="#e"/><linearGradient id="i" x1="1.3" y1="-2.111" x2="0.049" y2="2.015" gradientUnits="objectBoundingBox"><stop offset="0" stop-color="#41873f"/><stop offset="0.329" stop-color="#418b3d"/><stop offset="0.635" stop-color="#419637"/><stop offset="0.932" stop-color="#3fa92d"/><stop offset="1" stop-color="#3fae2a"/></linearGradient></defs><g transform="translate(-29 -10)"><rect class="a" width="70" height="68" transform="translate(29 10)"/><g transform="translate(29.629 21.3)"><g transform="translate(26.182 24.914)"><path class="b" d="M25.907,34.321a1.348,1.348,0,0,1-.646-.169l-2.045-1.215c-.307-.169-.154-.231-.061-.261a3.724,3.724,0,0,0,.922-.415.141.141,0,0,1,.154.015l1.568.938a.2.2,0,0,0,.184,0l6.134-3.551a.177.177,0,0,0,.092-.169V22.406a.177.177,0,0,0-.092-.169L25.984,18.7a.2.2,0,0,0-.184,0l-6.134,3.536a.193.193,0,0,0-.092.169v7.087a.193.193,0,0,0,.092.169l1.676.969c.907.461,1.476-.077,1.476-.615v-7A.187.187,0,0,1,23,22.837h.784a.187.187,0,0,1,.184.184v7a1.705,1.705,0,0,1-1.814,1.922,2.637,2.637,0,0,1-1.414-.384l-1.614-.922a1.3,1.3,0,0,1-.646-1.122V22.421a1.3,1.3,0,0,1,.646-1.122l6.134-3.551a1.372,1.372,0,0,1,1.291,0L32.687,21.3a1.3,1.3,0,0,1,.646,1.122v7.087a1.3,1.3,0,0,1-.646,1.122l-6.134,3.551A1.728,1.728,0,0,1,25.907,34.321Z" transform="translate(-18.482 -17.586)"/><path class="b" d="M26.023,27.967c-2.69,0-3.244-1.23-3.244-2.275a.187.187,0,0,1,.184-.184h.8a.158.158,0,0,1,.169.154c.123.815.477,1.215,2.106,1.215,1.291,0,1.845-.292,1.845-.984,0-.4-.154-.692-2.168-.892-1.676-.169-2.721-.538-2.721-1.876,0-1.245,1.045-1.983,2.8-1.983,1.968,0,2.936.676,3.059,2.152a.248.248,0,0,1-.046.138.19.19,0,0,1-.123.061h-.815a.18.18,0,0,1-.169-.138c-.184-.846-.661-1.122-1.922-1.122-1.414,0-1.584.492-1.584.861,0,.446.2.584,2.106.83,1.891.246,2.783.6,2.783,1.922C29.083,27.2,27.96,27.967,26.023,27.967Z" transform="translate(-16.691 -16.105)"/></g><g transform="translate(42.002 28.15)"><path class="b" d="M32.016,21.054a1.184,1.184,0,1,1-1.184-1.184A1.194,1.194,0,0,1,32.016,21.054Zm-2.183,0a.994.994,0,0,0,.984,1,1.007,1.007,0,0,0,1-1,.992.992,0,0,0-1.983,0Zm.553-.661h.461c.154,0,.461,0,.461.354a.3.3,0,0,1-.246.323c.184.015.2.138.215.307a1.853,1.853,0,0,0,.061.354h-.277c0-.061-.046-.4-.046-.415-.015-.077-.046-.108-.138-.108h-.231v.538h-.261Zm.246.584h.2a.179.179,0,0,0,.2-.184c0-.184-.123-.184-.2-.184h-.215v.369Z" transform="translate(-29.649 -19.871)"/></g><path class="c" d="M14.59,11.171a.782.782,0,0,0-.4-.676l-6.5-3.767a.946.946,0,0,0-.354-.108H7.272a.731.731,0,0,0-.354.108L.4,10.479a.788.788,0,0,0-.4.692L.015,21.256a.382.382,0,0,0,.2.338.349.349,0,0,0,.384,0l3.874-2.214a.782.782,0,0,0,.4-.676v-4.72a.782.782,0,0,1,.4-.676l1.645-.953a.745.745,0,0,1,.4-.108.66.66,0,0,1,.384.108l1.645.953a.782.782,0,0,1,.4.676V18.7a.782.782,0,0,0,.4.676l3.844,2.214a.375.375,0,0,0,.4,0,.382.382,0,0,0,.2-.338Z" transform="translate(0 2.758)"/><path class="c" d="M35.455.046a.423.423,0,0,0-.384,0,.4.4,0,0,0-.2.338v9.993a.277.277,0,0,1-.415.246l-1.63-.938a.792.792,0,0,0-.784,0l-6.519,3.767a.782.782,0,0,0-.4.676v7.518a.782.782,0,0,0,.4.676l6.519,3.767a.792.792,0,0,0,.784,0l6.519-3.767a.782.782,0,0,0,.4-.676V2.906a.788.788,0,0,0-.4-.692Zm-.6,19.125a.177.177,0,0,1-.092.169l-2.229,1.291a.228.228,0,0,1-.2,0L30.1,19.341a.193.193,0,0,1-.092-.169V16.589a.177.177,0,0,1,.092-.169l2.229-1.291a.228.228,0,0,1,.2,0l2.229,1.291a.193.193,0,0,1,.092.169Z" transform="translate(10.468)"/><g transform="translate(53.441 9.49)"><path class="c" d="M51.9,13.736a.768.768,0,0,0,.384-.676V11.23a.8.8,0,0,0-.384-.676L45.425,6.8a.792.792,0,0,0-.784,0l-6.519,3.767a.782.782,0,0,0-.4.676v7.518a.782.782,0,0,0,.4.676L44.6,23.13a.764.764,0,0,0,.769,0l3.92-2.183a.386.386,0,0,0,0-.676L42.735,16.5a.4.4,0,0,1-.2-.338V13.813a.382.382,0,0,1,.2-.338l2.045-1.168a.375.375,0,0,1,.4,0l2.045,1.168a.4.4,0,0,1,.2.338v1.845a.382.382,0,0,0,.2.338.375.375,0,0,0,.4,0Z" transform="translate(-37.723 -6.699)"/><path class="d" d="M43.2,11.423a.14.14,0,0,1,.154,0l1.245.723a.161.161,0,0,1,.077.138V13.73a.161.161,0,0,1-.077.138l-1.245.723a.14.14,0,0,1-.154,0l-1.245-.723a.161.161,0,0,1-.077-.138V12.284a.161.161,0,0,1,.077-.138Z" transform="translate(-35.991 -4.74)"/></g><g transform="translate(17.849 9.52)"><path class="e" d="M20.241,6.824a.792.792,0,0,0-.784,0L12.984,10.56a.768.768,0,0,0-.384.676v7.487a.8.8,0,0,0,.384.676l6.473,3.736a.792.792,0,0,0,.784,0L26.713,19.4a.768.768,0,0,0,.384-.676V11.236a.8.8,0,0,0-.384-.676Z" transform="translate(-12.6 -6.72)"/><g class="f"><path class="g" d="M19.45,6.827l-6.473,3.736a.782.782,0,0,0-.4.676v7.487a.725.725,0,0,0,.184.492L20.05,6.735A.824.824,0,0,0,19.45,6.827Z" transform="translate(-12.609 -6.723)"/><path class="g" d="M17.874,22.043a.941.941,0,0,0,.184-.077l6.5-3.736a.813.813,0,0,0,.43-.676V10.066a.817.817,0,0,0-.261-.538Z" transform="translate(-10.402 -5.55)"/><path class="h" d="M26.688,10.552l-6.5-3.736a1.067,1.067,0,0,0-.2-.077L12.7,19.208a.809.809,0,0,0,.215.184l6.5,3.736a.75.75,0,0,0,.6.077L26.857,10.69A.481.481,0,0,0,26.688,10.552Z" transform="translate(-12.559 -6.712)"/></g><g class="f"><path class="g" d="M25.01,18.72V11.233a.848.848,0,0,0-.43-.676l-6.5-3.736a.679.679,0,0,0-.246-.092l7.149,12.161C24.979,18.843,25.01,18.782,25.01,18.72Z" transform="translate(-10.42 -6.717)"/><path class="g" d="M12.988,9.44a.782.782,0,0,0-.4.676V17.6a.782.782,0,0,0,.4.676l6.488,3.736a.7.7,0,0,0,.492.092L13,9.409Z" transform="translate(-12.604 -5.6)"/><path class="i" d="M17.315,5.828l-.092.046h.123Z" transform="translate(-10.673 -7.092)"/><path class="j" d="M26.615,19.4A.874.874,0,0,0,27,18.909L19.882,6.733a.781.781,0,0,0-.553.092l-6.457,3.721,6.965,12.7a1.072,1.072,0,0,0,.292-.092Z" transform="translate(-12.487 -6.721)"/><path class="k" d="M23.021,15.607l-.046-.077v.108Z" transform="translate(-8.277 -3.05)"/><path class="l" d="M24.567,15.82l-6.488,3.736a.927.927,0,0,1-.292.092l.154.231,7.226-4.166V15.62l-.2-.307A.777.777,0,0,1,24.567,15.82Z" transform="translate(-10.438 -3.14)"/><path class="m" d="M24.567,15.82l-6.488,3.736a.927.927,0,0,1-.292.092l.154.231,7.226-4.166V15.62l-.2-.307A.777.777,0,0,1,24.567,15.82Z" transform="translate(-10.438 -3.14)"/></g></g></g></g></svg>