<svg xmlns="http://www.w3.org/2000/svg" width="70" height="68" viewBox="0 0 70 68"><defs><style>.a{fill:#fff;}.b{fill:#0277bd;}.c{fill:#ffc107;}</style></defs><g transform="translate(-29 -10)"><rect class="a" width="70" height="68" transform="translate(29 10)"/><g transform="translate(35.438 15)"><path class="b" d="M29.174,5a27.144,27.144,0,0,0-4.972.464c-4.861.846-5.746,2.624-5.746,5.9v5.006H29.824v2.526H12.53c-3.33,0-6.244,1.569-7.167,5.329a21.154,21.154,0,0,0,0,11.526c.827,3.361,2.65,5.881,5.981,5.881h4.588V35.184a7.709,7.709,0,0,1,7.281-7.447h9.14c3.187,0,6.316-2.352,6.316-5.529V11.362a5.99,5.99,0,0,0-5.328-5.9A21.493,21.493,0,0,0,29.174,5Zm-6.3,5.053a1.895,1.895,0,1,1,0,3.789,1.895,1.895,0,1,1,0-3.789Z" transform="translate(0 0)"/><path class="c" d="M25.056,50.631a27.144,27.144,0,0,0,4.972-.464c4.861-.846,5.746-2.624,5.746-5.9V39.263H24.405V36.736H41.7c3.33,0,6.244-1.569,7.167-5.329a21.154,21.154,0,0,0,0-11.526C48.04,16.52,46.217,14,42.886,14H38.3v6.447a7.709,7.709,0,0,1-7.281,7.447h-9.14c-3.187,0-6.316,2.352-6.316,5.529V44.268a5.99,5.99,0,0,0,5.328,5.9A21.494,21.494,0,0,0,25.056,50.631Zm6.3-5.053a1.895,1.895,0,1,1,0-3.789,1.895,1.895,0,0,1,0,3.789Z" transform="translate(2.894 2.368)"/></g></g></svg>