<svg xmlns="http://www.w3.org/2000/svg" width="70" height="68" viewBox="0 0 70 68"><defs><style>.a{fill:#fff;}.b{fill:#d84e4e;}.c{fill:#c74343;}.d{fill:#e26666;}.e{fill:#ed7e7e;}.f{fill:#f7a3a3;}</style></defs><g transform="translate(-29 -10)"><g transform="translate(0 1)"><rect class="a" width="70" height="68" transform="translate(29 9)"/></g><g transform="translate(39.333 19.333)"><path class="b" d="M50.288,14.2,48.5,48.5,15.041,50.289Z" transform="translate(-4 -4)"/><path class="c" d="M49.909,15.063,48.186,48.187,15.876,49.91,49.909,15.063m.757-1.73L14.205,50.667l34.615-1.846,1.846-35.487Z" transform="translate(-4 -4)"/><path class="d" d="M48.163,48.358,32.149,32.287,50.289,14.578,48.508,48.423Z" transform="translate(-4 -4)"/><path class="c" d="M49.911,15.413,48.2,47.923,32.623,32.29,49.911,15.413m.755-1.669L31.675,32.283,48,48.667l.821.154,1.846-35.077Z" transform="translate(-4 -4)"/><path class="e" d="M11.909,46.333a8.894,8.894,0,0,1-6.551-2.358c-5.432-5.432-1.19-18.513,9.457-29.16C22.1,7.527,30.766,3,37.424,3a8.894,8.894,0,0,1,6.551,2.358c5.432,5.432,1.19,18.513-9.457,29.16C27.231,41.806,18.567,46.333,11.909,46.333Z"/><path class="c" d="M37.441,2.667v.611a8.614,8.614,0,0,1,6.343,2.272c5.32,5.32,1.072,18.224-9.469,28.766-7.242,7.242-15.833,11.741-22.422,11.741a8.614,8.614,0,0,1-6.344-2.271C.23,38.464,4.477,25.56,15.018,15.018,22.26,7.777,30.852,3.278,37.44,3.278V2.667m0,0c-6.494,0-15.281,4.347-22.854,11.92C3.789,25.383-.45,38.649,5.117,44.216a9.27,9.27,0,0,0,6.776,2.451c6.494,0,15.281-4.347,22.854-11.92,10.8-10.8,15.036-24.063,9.469-29.63A9.27,9.27,0,0,0,37.44,2.667Z" transform="translate(0)"/><g transform="translate(2.667 2.667)"><path class="f" d="M7.663,30,3,36.991v-12.3l4.81-8.415,8.459-8.457L25.9,3H37.352L32.582,7.68l12.47,4.75-15.946,5.9,4.771,15.5L18.338,27.861,12.447,44.943Z" transform="translate(-2.667 -2.667)"/><path class="c" d="M36.666,3.277l-3.91,3.837-.68.667.89.339,11.3,4.3L29.309,17.962l-.541.2.17.552,4.513,14.669-14.7-5.653-.59-.227-.206.6-5.5,15.965L8.13,30.556,7.744,29.35l-.7,1.055L3.277,36.05V24.8l4.762-8.333,8.417-8.417L26,3.277H36.666m1.493-.61h-12.3L16.094,7.549,7.549,16.094,2.667,24.639V38.066l4.883-7.324L12.432,46l6.1-17.7L34.4,34.4,29.521,18.535,46,12.432,33.183,7.549,38.16,2.667Z" transform="translate(-2.667 -2.667)"/></g><g transform="translate(2.667 2.667)"><path class="e" d="M3.069,26.635l5.2-9.1,9.263-9.263L27.976,3.051,35.6,8.136,31.712,19.81,19.843,30.36l-11.713,2.6Z" transform="translate(-2.667 -2.667)"/><path class="c" d="M27.952,3.436l7.255,4.836L31.424,19.62,19.687,30.053,8.261,32.593,3.471,26.6l5.064-8.863,9.194-9.194L27.952,3.436M28,2.667,17.333,8,8,17.333,2.667,26.667,8,33.333l12-2.667L32,20,36,8,28,2.667Z" transform="translate(-2.667 -2.667)"/></g></g></g></svg>