<svg xmlns="http://www.w3.org/2000/svg" width="44" height="44" viewBox="0 0 44 44"><defs><style>.a{fill:#fff;}</style></defs><g transform="translate(0)"><path class="a" d="M25.928,64.8a2.717,2.717,0,0,0-3.842,3.842l.33.329L2.265,89.118A7.735,7.735,0,0,0,13.2,100.057L33.355,79.907l.33.329a2.717,2.717,0,0,0,3.842-3.842ZM12.2,99.054a6.316,6.316,0,0,1-8.932-8.932L6.681,86.71H24.545ZM35.606,79.613a1.306,1.306,0,0,1-.918-.38L33.355,77.9,25.964,85.29H8.1l2.545-2.545,1.627,1.627,1-1-1.627-1.627,1.126-1.126,3.047,3.047,1-1-3.047-3.047L14.9,78.488l1.627,1.627,1-1-1.627-1.627,1.126-1.126,3.047,3.047,1-1-3.047-3.047,1.126-1.126,1.627,1.627,1-1-1.627-1.627L21.29,72.1l3.047,3.047,1-1L22.294,71.1l1.126-1.125,7.3,7.3,1-1-8.638-8.637a1.3,1.3,0,0,1,.918-2.216,1.306,1.306,0,0,1,.918.38l11.6,11.6a1.3,1.3,0,0,1-.918,2.216Zm0,0" transform="translate(0 -58.323)"/><path class="a" d="M434.839,88a2.839,2.839,0,1,0,2.839,2.839A2.841,2.841,0,0,0,434.839,88Zm0,4.258a1.419,1.419,0,1,1,1.419-1.419A1.421,1.421,0,0,1,434.839,92.258Zm0,0" transform="translate(-393.677 -80.194)"/><path class="a" d="M322.129,28.258A2.129,2.129,0,1,0,320,26.129,2.132,2.132,0,0,0,322.129,28.258Zm0-2.839a.71.71,0,1,1-.71.71A.711.711,0,0,1,322.129,25.419Zm0,0" transform="translate(-291.613 -21.871)"/><path class="a" d="M418.129,4.258A2.129,2.129,0,1,0,416,2.129,2.132,2.132,0,0,0,418.129,4.258Zm0-2.839a.71.71,0,1,1-.71.71A.711.711,0,0,1,418.129,1.419Zm0,0" transform="translate(-379.097)"/><path class="a" d="M60.258,346.129a2.129,2.129,0,1,0-2.129,2.129A2.132,2.132,0,0,0,60.258,346.129Zm-2.839,0a.71.71,0,1,1,.71.71A.711.711,0,0,1,57.419,346.129Zm0,0" transform="translate(-51.032 -313.484)"/><path class="a" d="M146.129,344a2.129,2.129,0,1,0,2.129,2.129A2.132,2.132,0,0,0,146.129,344Zm0,2.839a.71.71,0,1,1,.71-.71A.711.711,0,0,1,146.129,346.839Zm0,0" transform="translate(-131.226 -313.484)"/><path class="a" d="M74.129,416a2.129,2.129,0,1,0,2.129,2.129A2.132,2.132,0,0,0,74.129,416Zm0,2.839a.71.71,0,1,1,.71-.71A.711.711,0,0,1,74.129,418.839Zm0,0" transform="translate(-65.613 -379.097)"/></g></svg>